<svg width="179" height="40" viewBox="0 0 179 40" fill="none" xmlns="http://www.w3.org/2000/svg">
  <path d="M22.976 22.3622C26.7682 20.9157 28.9912 17.6218 28.9912 13.5273C28.9912 10.7207 28.0237 8.33596 25.9556 6.5711C23.9722 4.81068 21.1718 4 17.9355 4H4.79171C4.33301 4 3.87044 4.1536 3.51794 4.49887C3.16361 4.84593 3 5.30916 3 5.77528V34.2247C3 34.7464 3.2536 35.1749 3.51366 35.4478C3.76028 35.7065 4.18239 36 4.71245 36H7.95898C8.41766 36 8.88022 35.8464 9.23273 35.5012C9.58708 35.1541 9.75069 34.6909 9.75069 34.2247V23.2869H15.4476L24.4116 35.5889L24.7111 36H25.2198H31H32.9729L31.8065 34.4088L22.976 22.3622ZM17.6189 17.1006H9.82995V10.341H17.6189C19.2201 10.341 20.3608 10.7167 21.0789 11.2806C21.7662 11.8204 22.1612 12.6042 22.1612 13.682C22.1612 14.8534 21.7549 15.6496 21.0789 16.1805C20.3669 16.7396 19.2309 17.1006 17.6189 17.1006Z" fill="black" stroke="white" stroke-width="2"/>
  <path d="M34.5544 15.6232L34.5544 15.6232C32.2346 18.0089 31.088 21.0107 31.0003 24.3932L31 24.4062V24.4191C31 28.0772 32.2458 31.105 34.8391 33.4958L34.8453 33.5015L34.8515 33.5071C37.4984 35.8665 40.6019 37 44.2674 37C47.6201 37 50.449 36.4249 52.6364 34.9939C52.9637 34.8035 53.1487 34.4989 53.2366 34.3247C53.3476 34.1047 53.446 33.8079 53.446 33.4895V31.2218C53.446 29.9353 52.1397 29.0509 50.9106 29.5723L50.8917 29.5803L50.8732 29.5891C49.1138 30.4223 47.2963 30.8698 45.3307 30.8698C41.6903 30.8698 39.1818 29.3677 38.2764 26.9579H54H55V25.9579V24.7428C55 20.458 53.5177 16.5546 49.9279 13.974C48.0966 12.6162 46 12 43.5316 12C39.8465 12 36.8826 13.2289 34.5544 15.6232ZM43.2864 18.0494C44.836 18.0494 45.9565 18.5227 46.8086 19.3532C47.3676 20.0052 47.724 20.6335 47.9189 21.3133H38.3134C38.9593 19.4385 40.6897 18.0494 43.2864 18.0494Z" fill="black" stroke="white" stroke-width="2"/>
  <path d="M57.7845 19.3238H60.5492V29.6648C60.5492 31.9428 61.2444 33.816 62.6172 35.1136C63.9812 36.4028 65.8833 37 68.059 37C69.9891 37 71.5965 36.7654 72.8334 36.1054C73.1034 35.9684 73.3644 35.7683 73.5569 35.4803C73.7572 35.1806 73.8431 34.8456 73.8431 34.5139V32.1675C73.8431 30.9768 72.6629 30.0531 71.5083 30.4366C70.9351 30.6269 70.3433 30.6983 69.6275 30.6983C68.6166 30.6983 68.0864 30.4701 67.7943 30.1788C67.5024 29.8878 67.2549 29.3406 67.2549 28.257V19.2459H72.2156C72.6772 19.2459 73.1402 19.0883 73.4906 18.7388C73.8411 18.3892 74 17.9261 74 17.4636V14.9608C74 14.4982 73.841 14.0353 73.4904 13.6858C73.1401 13.3365 72.6772 13.179 72.2156 13.179H67.2549V8.78228C67.2549 8.31934 67.0957 7.85634 66.7452 7.50688C66.395 7.15771 65.9321 7 65.4705 7H62.3332C61.8715 7 61.4087 7.15776 61.0585 7.50717C60.7081 7.85679 60.5492 8.31976 60.5492 8.78228V13.179H57.7845C57.3229 13.179 56.86 13.3365 56.5096 13.6858C56.159 14.0353 56 14.4982 56 14.9608V17.542C56 18.0045 56.159 18.4675 56.5096 18.817C56.86 19.1663 57.3229 19.3238 57.7845 19.3238Z" fill="black" stroke="white" stroke-width="2"/>
  <path d="M78.5543 15.6232L78.5543 15.6232C76.2345 18.0089 75.0878 21.0107 75.0003 24.3933L75 24.4062V24.4191C75 28.0772 76.2457 31.105 78.839 33.4958L78.8452 33.5015L78.8514 33.5071C81.4984 35.8665 84.6019 37 88.2675 37C91.6201 37 94.449 36.4249 96.6365 34.9939C96.9638 34.8036 97.1488 34.4989 97.2367 34.3247C97.3477 34.1047 97.4461 33.8079 97.4461 33.4895V31.2218C97.4461 29.9353 96.1396 29.0509 94.9107 29.5723L94.8918 29.5803L94.8733 29.5891C93.1138 30.4223 91.2967 30.8698 89.3307 30.8698C85.6902 30.8698 83.1817 29.3677 82.2764 26.9579H98H99V25.9579V24.7428C99 20.458 97.5176 16.5546 93.928 13.9739C92.0965 12.6162 90.0001 12 87.5316 12C83.8465 12 80.8825 13.2289 78.5543 15.6232ZM87.2865 18.0494C88.836 18.0494 89.9566 18.5227 90.8087 19.3532C91.3677 20.0053 91.7241 20.6335 91.919 21.3133H82.3133C82.9592 19.4385 84.6897 18.0494 87.2865 18.0494Z" fill="black" stroke="white" stroke-width="2"/>
  <path d="M116.834 7.48814L116.336 6.65219L115.487 7.12729L110.512 9.9106L109.615 10.4123L110.141 11.2952L125.165 36.5118L125.663 37.3478L126.512 36.8727L131.488 34.0895L132.385 33.5877L131.859 32.7049L116.834 7.48814Z" fill="#FF6B06" stroke="white" stroke-width="2"/>
  <path d="M103.597 7.5074L103.095 6.6221L102.219 7.13831L97.4926 9.92162L96.6455 10.4204L97.1297 11.2759L111.403 36.4926L111.905 37.3779L112.781 36.8617L117.507 34.0784L118.354 33.5796L117.87 32.7241L103.597 7.5074Z" fill="#FF6B06" stroke="white" stroke-width="2"/>
  <path d="M139 37C141.209 37 143 35.2092 143 33.0001C143 30.7908 141.209 29 139 29C136.791 29 135 30.7908 135 33.0001C135 35.2092 136.791 37 139 37Z" fill="#FF6B06" stroke="white" stroke-width="2"/>
</svg>
